<?xml version="1.0" encoding="UTF-8" standalone="no"?>
<!-- Created with Inkscape (http://www.inkscape.org/) -->

<svg
   width="232.16701mm"
   height="141.93193mm"
   viewBox="0 0 232.16701 141.93193"
   version="1.1"
   id="svg1"
   xml:space="preserve"
   inkscape:version="1.3 (0e150ed6c4, 2023-07-21)"
   sodipodi:docname="_Working-Zeko-Logo.svg"
   xmlns:inkscape="http://www.inkscape.org/namespaces/inkscape"
   xmlns:sodipodi="http://sodipodi.sourceforge.net/DTD/sodipodi-0.dtd"
   xmlns:xlink="http://www.w3.org/1999/xlink"
   xmlns="http://www.w3.org/2000/svg"
   xmlns:svg="http://www.w3.org/2000/svg"><sodipodi:namedview
     id="namedview1"
     pagecolor="#505050"
     bordercolor="#eeeeee"
     borderopacity="1"
     inkscape:showpageshadow="0"
     inkscape:pageopacity="0"
     inkscape:pagecheckerboard="0"
     inkscape:deskcolor="#505050"
     inkscape:document-units="mm"
     inkscape:zoom="1.4142136"
     inkscape:cx="496.03539"
     inkscape:cy="397.74755"
     inkscape:window-width="2560"
     inkscape:window-height="1369"
     inkscape:window-x="-8"
     inkscape:window-y="-8"
     inkscape:window-maximized="1"
     inkscape:current-layer="layer2" /><defs
     id="defs1"><linearGradient
       id="linearGradient22"
       inkscape:collect="always"><stop
         style="stop-color:#ffe459;stop-opacity:1;"
         offset="0"
         id="stop19" /><stop
         style="stop-color:#dd9b34;stop-opacity:1;"
         offset="0.80441642"
         id="stop20" /><stop
         style="stop-color:#db9531;stop-opacity:1;"
         offset="1"
         id="stop21" /></linearGradient><linearGradient
       id="linearGradient9"
       inkscape:collect="always"><stop
         style="stop-color:#ffe459;stop-opacity:1;"
         offset="0.2933754"
         id="stop9" /><stop
         style="stop-color:#dd9b34;stop-opacity:1;"
         offset="0.57097793"
         id="stop12" /><stop
         style="stop-color:#db9531;stop-opacity:1;"
         offset="0.68454254"
         id="stop11" /><stop
         style="stop-color:#a47327;stop-opacity:1;"
         offset="0.90536273"
         id="stop10" /></linearGradient><linearGradient
       inkscape:collect="always"
       xlink:href="#linearGradient9"
       id="linearGradient10"
       x1="261.54999"
       y1="78.203064"
       x2="128.717"
       y2="124.22688"
       gradientUnits="userSpaceOnUse" /><linearGradient
       inkscape:collect="always"
       xlink:href="#linearGradient9"
       id="linearGradient14"
       x1="239.09932"
       y1="86.996231"
       x2="146.67752"
       y2="101.96333"
       gradientUnits="userSpaceOnUse" /><linearGradient
       inkscape:collect="always"
       xlink:href="#linearGradient22"
       id="linearGradient19"
       x1="228.28667"
       y1="101.02356"
       x2="161.44846"
       y2="100.2752"
       gradientUnits="userSpaceOnUse" /></defs><g
     inkscape:groupmode="layer"
     id="layer3"
     inkscape:label="Rings"
     transform="translate(-32.662406,-30.698373)"><path
       id="path6"
       style="display:inline;fill:url(#linearGradient19);stroke-width:0.264583"
       d="m 196.81693,68.758594 c -6.91223,0.198438 -11.14558,3.902605 -12.60078,5.060156 -1.91823,1.554425 -13.89064,11.509376 -15.875,13.163021 -1.09141,1.091405 -7.69922,6.247838 -7.87136,13.361459 -0.16881,6.97589 7.47448,15.67656 7.47448,15.67656 0,0 4.63022,5.82084 9.525,10.45104 5.78776,4.92786 11.50938,9.12808 17.39635,9.06198 5.88698,-0.0662 10.78387,-4.35359 12.76615,-5.8539 2.54351,-1.82971 10.92513,-8.87534 14.94896,-12.17084 2.95344,-2.69028 7.34219,-6.39741 7.34219,-13.9237 0,-7.789155 -5.72161,-14.585152 -6.35,-15.279683 -3.76266,-4.404917 -7.74704,-8.735948 -12.03855,-12.964583 0,0 -5.59074,-6.420872 -14.71744,-6.58151 z m -0.37931,2.349727 c 8.43961,0.148544 13.86686,6.249748 13.86686,6.249748 3.96841,3.910286 7.61967,8.014336 11.09906,12.087634 0.58108,0.642243 6.02083,6.976219 6.02083,14.178977 0,6.95968 -5.36698,11.5486 -7.11585,12.84366 -4.06946,2.89248 -11.46561,9.35498 -13.61313,11.13782 -1.10808,0.84949 -6.36118,5.35194 -11.80496,5.41311 -6.73,-0.17276 -10.78161,-3.61251 -16.13364,-8.16938 -4.52629,-4.28163 -8.99482,-9.82771 -8.99482,-9.82771 0,0 -7.18485,-8.16261 -7.02875,-14.61332 0.15918,-6.578082 6.78408,-11.509894 7.79332,-12.519134 1.83498,-1.529152 12.67233,-10.617676 14.44615,-12.055078 1.34566,-1.070406 5.07309,-4.542829 11.46493,-4.726327 z"
       sodipodi:nodetypes="cccscccccsccccccscccccsccc"
       inkscape:label="Inner"
       inkscape:export-filename="Zeko-Logo-White.svg"
       inkscape:export-xdpi="96"
       inkscape:export-ydpi="96" /><path
       id="path7"
       style="display:inline;fill:url(#linearGradient14);stroke-width:0.365848"
       d="m 203.79194,58.271314 c -10.07446,0.317765 -18.7581,5.800326 -21.14476,7.339301 -3.15286,2.06633 -20.81403,14.490657 -24.08645,16.688428 -1.84316,1.44876 -10.63934,7.180818 -13.2446,18.651027 -1.90622,9.20486 5.62113,20.65513 5.62113,20.65513 0,0 5.82668,9.39498 11.82458,15.46413 6.8171,6.70849 13.23233,9.50238 22.81324,9.69825 8.55568,-0.13495 18.38592,-5.02163 23.6534,-8.37347 5.31817,-3.06601 14.2204,-9.13195 20.70206,-13.76962 3.19452,-2.26366 11.59685,-8.80702 13.87332,-20.23014 2.37706,-11.927879 -6.58051,-24.200946 -7.39685,-25.369421 -1.82332,-2.716346 -7.54611,-9.080392 -9.79717,-11.233383 -1.54348,-1.333007 -9.61655,-9.382187 -22.8179,-9.520232 z m -0.71227,3.009593 c 12.20751,0.127653 17.57113,5.680435 19.32508,7.106986 5.57389,4.822814 7.22787,7.010726 12.14706,13.689592 0.97064,1.24019 7.66783,12.200926 5.95248,21.703745 -1.65745,9.18213 -8.12028,14.85316 -12.71964,18.58712 -7.78491,6.28125 -19.99641,13.43742 -21.31459,14.28686 -7.00146,4.31025 -12.89903,7.00027 -20.81059,7.12504 -7.84137,-0.0858 -13.35169,-1.37283 -21.90126,-9.82046 -5.54636,-5.61223 -9.79457,-13.21991 -9.79457,-13.21991 0,0 -7.44008,-11.17659 -5.67739,-19.68848 1.7975,-8.679951 11.03932,-16.137259 12.93083,-17.406794 3.02606,-2.032313 18.52393,-12.978602 21.43944,-14.889372 2.20699,-1.423114 11.10715,-7.180485 20.42315,-7.474327 z"
       sodipodi:nodetypes="cccccccccsccccccscccccsccc"
       inkscape:label="Middle" /><path
       id="path8"
       style="display:inline;fill:url(#linearGradient10);fill-opacity:1;stroke-width:0.551656"
       d="m 190.13024,31.723756 c -14.03927,3.648272 -21.4493,10.060803 -28.82245,18.006275 -10.86362,11.565629 -18.61268,22.946335 -22.47563,28.035051 -3.18493,4.326259 -14.87173,20.769721 -13.12468,39.143168 1.30539,13.57467 11.02823,25.96485 13.64747,28.397 0,0 13.2563,12.555 24.39004,19.87277 12.57034,8.02977 27.46946,8.56613 38.51615,6.27278 13.01161,-3.31465 22.90365,-12.41103 30.65554,-20.55236 6.12586,-6.32061 11.42917,-11.86211 18.40219,-21.44612 3.11838,-4.43652 13.18943,-17.09339 13.50253,-35.223369 0.44157,-25.569101 -17.51572,-39.39949 -19.18292,-40.914722 -5.82897,-5.557051 -16.79884,-12.860482 -20.92206,-15.417643 -2.76367,-1.536181 -15.94352,-10.112724 -34.58618,-6.17283 z m -0.99079,4.423652 c 16.54466,-3.510996 22.95166,0.378864 30.3856,3.57824 9.98424,5.561162 15.11036,9.704554 24.9962,18.285909 6.82726,6.346243 15.31479,17.306879 15.89845,35.061904 0.478,14.540649 -5.73142,24.373159 -10.54932,31.480719 -8.17205,11.97136 -16.29343,20.01903 -19.40914,23.35841 -6.49344,6.44458 -14.39672,15.13675 -27.30132,19.02864 -11.07512,2.33446 -23.70491,3.33088 -37.75443,-5.43511 -10.29556,-6.76684 -23.34383,-19.02546 -23.34383,-19.02546 -4.91108,-5.70621 -11.51251,-15.17941 -12.80619,-28.6404 -1.31923,-13.72674 5.19343,-23.412398 10.61365,-31.263985 3.45158,-4.781135 14.13298,-18.876227 17.38929,-22.689963 5.6834,-6.489614 14.86379,-19.538475 31.88104,-23.738904 z"
       sodipodi:nodetypes="cccccccccsccccccscccccsccc"
       inkscape:label="Outer" /></g><g
     inkscape:groupmode="layer"
     id="layer2"
     inkscape:label="Text"
     style="display:inline"
     transform="translate(-32.662406,-30.698373)"><path
       style="fill:#000000;stroke-width:0.264583"
       d="M 38.73913,79.567134 H 81.402813 L 52.981457,113.93862 h 26.015984 v 9.62148 H 32.662405 L 61.273657,88.935421 H 38.73913 Z"
       id="path1"
       inkscape:label="z" /><path
       id="path2"
       style="fill:#000000;stroke-width:0.264583"
       d="m 103.79677,78.328552 c -16.919014,0 -21.036964,14.812042 -21.036964,23.498828 0,7.16371 3.356717,23.09574 22.111314,23.09574 14.05505,0 18.9777,-10.65283 20.49952,-12.80128 l -8.68319,-4.78886 c -2.05893,2.95411 -4.65338,8.45944 -11.77137,8.45944 -8.056675,-0.0448 -11.055983,-6.22162 -11.593094,-11.8613 h 31.600134 c 0.40283,-5.220496 0.31332,-25.602568 -21.12635,-25.602568 z m 0.80563,9.175668 c 8.36999,0 9.9813,8.146272 9.9813,8.146272 H 94.08418 c 0,0 2.148238,-8.146272 10.51822,-8.146272 z"
       inkscape:label="e" /><path
       style="fill:#000000;stroke-width:0.264583"
       d="m 132.3533,123.58047 h 10.20512 v -17.00854 l 1.6561,-1.56657 14.50202,18.57511 h 13.20399 L 151.33125,98.067663 170.44348,79.582065 H 156.8814 L 142.60318,93.726009 V 47.265838 H 132.3533 Z"
       id="path3"
       inkscape:label="k" /><path
       id="path5"
       style="fill:#000000;fill-opacity:1;stroke-width:0.264583"
       d="m 194.7478,78.373511 c -0.0371,0 -1.19318,4.51e-4 -1.86214,4.51e-4 -8.28048,0 -21.9948,7.392443 -21.9948,22.558378 0,16.3025 12.82318,23.90051 22.39216,23.90051 0.80487,0 1.88272,8.7e-4 1.95726,8.7e-4 9.57849,0 22.55831,-7.7882 22.55831,-23.00634 0,-15.128645 -12.08476,-23.453869 -23.05079,-23.453869 z m -0.44752,9.130709 c 8.50427,0 13.15941,6.132523 13.15941,14.27871 0,8.14619 -5.09488,14.05212 -13.01727,14.05212 -7.9224,0 -13.25658,-6.21944 -13.25658,-14.09707 0,-7.877641 4.83398,-14.23376 13.11444,-14.23376 z"
       sodipodi:nodetypes="ssssssssssss"
       inkscape:label="o" /></g></svg>
