<svg width="1440" height="800" viewBox="0 0 1440 800" fill="none" xmlns="http://www.w3.org/2000/svg">
<g clip-path="url(#clip0_5286_73516)">
<rect width="1440" height="800" fill="#41568B"/>
<circle opacity="0.08" cx="516" cy="324" r="15.2" fill="#D7DAE5"/>
<circle opacity="0.08" cx="516" cy="324" r="30.4" fill="#D7DAE5"/>
<circle opacity="0.08" cx="515.999" cy="324" r="45.6" fill="#D7DAE5"/>
<circle opacity="0.08" cx="516" cy="324" r="60.8" fill="#D7DAE5"/>
<circle opacity="0.08" cx="516" cy="324" r="76" fill="#D7DAE5"/>
<circle opacity="0.08" cx="516" cy="324" r="91.2" fill="#D7DAE5"/>
<circle opacity="0.08" cx="516" cy="324" r="106.4" fill="#D7DAE5"/>
<circle opacity="0.08" cx="516" cy="324" r="121.6" fill="#D7DAE5"/>
<circle opacity="0.08" cx="516" cy="324" r="136.8" fill="#D7DAE5"/>
<circle opacity="0.08" cx="516" cy="324" r="152" fill="#D7DAE5"/>
<circle opacity="0.08" cx="516" cy="324" r="167.2" fill="#D7DAE5"/>
<circle opacity="0.08" cx="516.001" cy="324" r="182.4" fill="#D7DAE5"/>
<circle opacity="0.08" cx="516" cy="324" r="197.6" fill="#D7DAE5"/>
<circle opacity="0.08" cx="516" cy="324" r="212.8" fill="#D7DAE5"/>
<circle opacity="0.08" cx="516" cy="324" r="228" fill="#D7DAE5"/>
<circle opacity="0.08" cx="872" cy="424" r="16" fill="#DFE8FF"/>
<circle opacity="0.08" cx="872" cy="424" r="32" fill="#DFE8FF"/>
<circle opacity="0.08" cx="872" cy="424" r="48" fill="#DFE8FF"/>
<circle opacity="0.08" cx="872" cy="424" r="64" fill="#DFE8FF"/>
<circle opacity="0.08" cx="872" cy="424" r="80" fill="#DFE8FF"/>
<circle opacity="0.08" cx="872" cy="424" r="96" fill="#DFE8FF"/>
<circle opacity="0.08" cx="872" cy="424" r="112" fill="#DFE8FF"/>
<circle opacity="0.08" cx="872" cy="424" r="128" fill="#DFE8FF"/>
<circle opacity="0.08" cx="872" cy="424" r="144" fill="#DFE8FF"/>
<circle opacity="0.08" cx="872" cy="424" r="160" fill="#DFE8FF"/>
<circle opacity="0.08" cx="872" cy="424" r="176" fill="#DFE8FF"/>
<circle opacity="0.08" cx="872" cy="424" r="192" fill="#DFE8FF"/>
<circle opacity="0.08" cx="872" cy="424" r="208" fill="#DFE8FF"/>
<circle opacity="0.08" cx="872" cy="424" r="224" fill="#DFE8FF"/>
<circle opacity="0.08" cx="872" cy="424" r="240" fill="#DFE8FF"/>
</g>
<defs>
<clipPath id="clip0_5286_73516">
<rect width="1440" height="800" fill="white"/>
</clipPath>
</defs>
</svg>
